<svg width="44" height="51" viewBox="0 0 44 51" fill="none" xmlns="http://www.w3.org/2000/svg">
<ellipse cx="21.64" cy="28.51" rx="21.64" ry="21.51" fill="#B72E2E"/>
<path d="M26.68 39V34.96L26.16 33.96V26.52C26.16 25.32 25.7867 24.4 25.04 23.76C24.32 23.0933 23.16 22.76 21.56 22.76C20.52 22.76 19.4667 22.9333 18.4 23.28C17.3333 23.6 16.4267 24.0533 15.68 24.64L13.12 19.48C14.3467 18.68 15.8133 18.0667 17.52 17.64C19.2533 17.1867 20.9733 16.96 22.68 16.96C26.2 16.96 28.92 17.7733 30.84 19.4C32.7867 21 33.76 23.52 33.76 26.96V39H26.68ZM20.28 39.36C18.5467 39.36 17.08 39.0667 15.88 38.48C14.68 37.8933 13.76 37.0933 13.12 36.08C12.5067 35.0667 12.2 33.9333 12.2 32.68C12.2 31.3467 12.5333 30.2 13.2 29.24C13.8933 28.2533 14.9467 27.5067 16.36 27C17.7733 26.4667 19.6 26.2 21.84 26.2H26.96V30.16H22.88C21.6533 30.16 20.7867 30.36 20.28 30.76C19.8 31.16 19.56 31.6933 19.56 32.36C19.56 33.0267 19.8133 33.56 20.32 33.96C20.8267 34.36 21.52 34.56 22.4 34.56C23.2267 34.56 23.9733 34.36 24.64 33.96C25.3333 33.5333 25.84 32.8933 26.16 32.04L27.2 34.84C26.8 36.3333 26.0133 37.4667 24.84 38.24C23.6933 38.9867 22.1733 39.36 20.28 39.36Z" fill="#333333"/>
</svg>
